<svg width="204" height="58" viewBox="0 0 204 58" fill="none" xmlns="http://www.w3.org/2000/svg">
<path fill-rule="evenodd" clip-rule="evenodd" d="M2.37472 0H0V28.4966H0.0252556C0.00849615 28.7913 0 29.0882 0 29.3872C0 37.7481 6.64498 44.526 14.842 44.526C17.9216 44.526 20.7822 43.5693 23.1536 41.9313V57.5869H25.5283V39.893C25.8156 39.5891 26.0905 39.273 26.3522 38.9455C28.9649 42.3511 32.9444 44.526 37.402 44.526C41.7293 44.526 45.6061 42.4763 48.2193 39.2409C50.934 42.8173 55.1843 45.1197 59.9619 45.1197C65.1888 45.1197 69.7846 42.3638 72.4288 38.1988V43.9324H74.8036V30.2777H74.801C74.8029 30.179 74.8038 30.0801 74.8038 29.9809C74.8038 21.62 68.1589 14.8421 59.9619 14.8421C55.4486 14.8421 51.4058 16.8969 48.6837 20.1393C46.0779 16.556 41.9936 14.2484 37.402 14.2484C32.9444 14.2484 28.9649 16.4233 26.3522 19.8289C23.6307 16.4233 19.4853 14.2484 14.842 14.2484C9.61491 14.2484 5.01894 17.0045 2.37472 21.1697V0ZM59.962 42.745C55.6694 42.745 51.8835 40.524 49.6409 37.1431C50.917 34.8747 51.6503 32.222 51.6503 29.3872C51.6503 26.8292 51.0532 24.4194 49.999 22.3065C52.2743 19.2153 55.8902 17.2168 59.962 17.2168C66.8475 17.2168 72.4293 22.9315 72.4293 29.9809C72.4293 37.0303 66.8475 42.745 59.962 42.745ZM49.3702 29.3871C49.3702 27.7657 49.0867 26.2149 48.5698 24.7881C47.8788 26.3745 47.4948 28.1318 47.4948 29.9809C47.4948 31.6069 47.7917 33.1619 48.3331 34.5921C48.9996 33.0025 49.3702 31.2409 49.3702 29.3871ZM45.1199 29.9809C45.1199 27.1133 45.9016 24.4319 47.2594 22.1463C45.1005 18.8097 41.4905 16.623 37.4016 16.623C33.4268 16.623 29.9045 18.6894 27.7278 21.8699C28.9724 24.0848 29.684 26.6512 29.684 29.3872C29.684 32.1231 28.9724 34.6895 27.7279 36.9043C29.9046 40.0848 33.4268 42.1512 37.4016 42.1512C41.2675 42.1512 44.7053 40.1965 46.8934 37.1634C45.7621 35.0262 45.1199 32.5801 45.1199 29.9809ZM14.8421 42.1512C18.0352 42.1512 20.9479 40.9222 23.1536 38.9011V29.0903H23.1564C23.2032 26.5027 23.8611 24.0741 24.9831 21.9606C22.7211 18.7288 19.0218 16.623 14.8421 16.623C7.95665 16.623 2.37486 22.3377 2.37486 29.3871C2.37486 36.4365 7.95665 42.1512 14.8421 42.1512ZM27.3094 29.3871C27.3094 27.6457 26.9688 25.9858 26.3521 24.4734C25.7938 25.8997 25.4712 27.4571 25.4362 29.0903H25.5283V31.0052C25.6652 32.1588 25.9464 33.2644 26.3521 34.3008C26.9688 32.7884 27.3094 31.1284 27.3094 29.3871ZM135.613 15.5559L141.544 20.9123H141.59V12.09H139.908L139.942 17.1978L134.023 11.756H133.954V20.5668H135.647L135.613 15.5559ZM126.917 13.7024C127.255 13.8176 127.585 13.9635 127.907 14.1401L128.541 12.8616C128.203 12.639 127.819 12.447 127.389 12.2858C126.967 12.1245 126.414 12.0439 125.731 12.0439C125.209 12.0669 124.748 12.1859 124.349 12.4009C123.949 12.6082 123.638 12.8923 123.416 13.2532C123.201 13.6141 123.093 14.0402 123.093 14.5316C123.093 14.9386 123.166 15.2841 123.312 15.5682C123.466 15.8446 123.661 16.0788 123.899 16.2708C124.145 16.455 124.406 16.6125 124.683 16.743C124.959 16.8735 125.228 16.9887 125.489 17.0885C125.711 17.173 125.915 17.2728 126.099 17.388C126.291 17.5031 126.441 17.6298 126.548 17.768C126.664 17.9062 126.721 18.0598 126.721 18.2287C126.721 18.4744 126.652 18.6664 126.514 18.8046C126.383 18.9428 126.214 19.0426 126.007 19.104C125.807 19.1578 125.608 19.1847 125.408 19.1847C125.209 19.1847 124.99 19.154 124.752 19.0925C124.514 19.0311 124.276 18.9466 124.038 18.8391C123.807 18.724 123.592 18.5934 123.393 18.4476L122.656 19.749C122.955 19.9563 123.266 20.1291 123.588 20.2673C123.911 20.3978 124.237 20.4976 124.567 20.5668C124.905 20.6282 125.235 20.6589 125.558 20.6589C126.188 20.6589 126.717 20.5476 127.147 20.3249C127.577 20.0945 127.904 19.7951 128.126 19.4265C128.349 19.058 128.46 18.6587 128.46 18.2287C128.46 17.8218 128.403 17.4801 128.288 17.2037C128.172 16.9196 128.019 16.6854 127.827 16.5011C127.635 16.3092 127.416 16.1518 127.17 16.0289C126.932 15.8984 126.69 15.787 126.445 15.6949C126.176 15.5951 125.915 15.4837 125.662 15.3609C125.416 15.238 125.212 15.0998 125.051 14.9463C124.898 14.785 124.821 14.6046 124.821 14.405C124.821 14.1132 124.924 13.8943 125.132 13.7485C125.339 13.6026 125.623 13.5296 125.984 13.5296C126.276 13.5296 126.587 13.5872 126.917 13.7024ZM109.706 12.09C110.589 12.09 111.292 12.2704 111.814 12.6313C112.336 12.9845 112.597 13.5143 112.597 14.2207C112.597 14.7428 112.467 15.1805 112.206 15.5337C112.04 15.7589 111.834 15.9483 111.588 16.1017C111.97 16.28 112.284 16.5091 112.528 16.7891C112.843 17.1422 113 17.5684 113 18.0675C113 18.5282 112.916 18.9198 112.747 19.2423C112.586 19.5571 112.363 19.8143 112.079 20.0139C111.802 20.2059 111.488 20.3479 111.134 20.4401C110.781 20.5245 110.417 20.5668 110.04 20.5668H107.219V12.09H109.706ZM109.902 15.5567C110.232 15.5567 110.474 15.4569 110.628 15.2572C110.789 15.0576 110.87 14.8311 110.87 14.5777C110.87 14.2859 110.77 14.0671 110.57 13.9212C110.378 13.7753 110.117 13.7024 109.787 13.7024H108.889V15.5567H109.902ZM109.96 19.0119C110.205 19.0119 110.428 18.9812 110.628 18.9198C110.827 18.8507 110.985 18.747 111.1 18.6088C111.215 18.4629 111.273 18.2825 111.273 18.0675C111.273 17.8218 111.204 17.6375 111.065 17.5146C110.927 17.3841 110.747 17.2958 110.524 17.2497C110.309 17.196 110.083 17.1691 109.845 17.1691H108.889V19.0119H109.96ZM116.173 17.434C116.173 17.7028 116.253 17.96 116.415 18.2057C116.576 18.4514 116.787 18.651 117.048 18.8046C117.317 18.9582 117.609 19.0349 117.924 19.0349C118.269 19.0349 118.576 18.9582 118.845 18.8046C119.114 18.651 119.325 18.4514 119.478 18.2057C119.64 17.96 119.72 17.7028 119.72 17.434V12.09H121.367V17.4686C121.367 18.0905 121.214 18.6433 120.907 19.1271C120.599 19.6031 120.185 19.9794 119.663 20.2558C119.141 20.5245 118.561 20.6589 117.924 20.6589C117.294 20.6589 116.718 20.5245 116.196 20.2558C115.681 19.9794 115.271 19.6031 114.964 19.1271C114.656 18.6433 114.503 18.0905 114.503 17.4686V12.09H116.173V17.434ZM130.096 12.09H131.766V20.5668H130.096V12.09ZM143.773 12.09H149.554V13.7024H145.443V15.5106H149.082V17.1231H145.443V18.9543H149.716V20.5668H143.773V12.09ZM154.979 13.7024C155.317 13.8176 155.647 13.9635 155.97 14.1401L156.603 12.8616C156.265 12.639 155.882 12.447 155.452 12.2858C155.029 12.1245 154.476 12.0439 153.793 12.0439C153.271 12.0669 152.81 12.1859 152.411 12.4009C152.012 12.6082 151.701 12.8923 151.478 13.2532C151.263 13.6141 151.156 14.0402 151.156 14.5316C151.156 14.9386 151.229 15.2841 151.374 15.5682C151.528 15.8446 151.724 16.0788 151.962 16.2708C152.207 16.455 152.469 16.6125 152.745 16.743C153.021 16.8735 153.29 16.9887 153.551 17.0885C153.774 17.173 153.977 17.2728 154.162 17.388C154.354 17.5031 154.503 17.6298 154.611 17.768C154.726 17.9062 154.784 18.0598 154.784 18.2287C154.784 18.4744 154.714 18.6664 154.576 18.8046C154.446 18.9428 154.277 19.0426 154.069 19.104C153.87 19.1578 153.67 19.1847 153.471 19.1847C153.271 19.1847 153.052 19.154 152.814 19.0925C152.576 19.0311 152.338 18.9466 152.1 18.8391C151.87 18.724 151.655 18.5934 151.455 18.4476L150.718 19.749C151.017 19.9563 151.328 20.1291 151.651 20.2673C151.973 20.3978 152.3 20.4976 152.63 20.5668C152.968 20.6282 153.298 20.6589 153.62 20.6589C154.25 20.6589 154.78 20.5476 155.21 20.3249C155.64 20.0945 155.966 19.7951 156.189 19.4265C156.411 19.058 156.523 18.6587 156.523 18.2287C156.523 17.8218 156.465 17.4801 156.35 17.2037C156.235 16.9196 156.081 16.6854 155.889 16.5011C155.697 16.3092 155.478 16.1518 155.233 16.0289C154.995 15.8984 154.753 15.787 154.507 15.6949C154.238 15.5951 153.977 15.4837 153.724 15.3609C153.478 15.238 153.275 15.0998 153.114 14.9463C152.96 14.785 152.883 14.6046 152.883 14.405C152.883 14.1132 152.987 13.8943 153.194 13.7485C153.401 13.6026 153.686 13.5296 154.046 13.5296C154.338 13.5296 154.649 13.5872 154.979 13.7024ZM162.685 14.1401C162.362 13.9635 162.032 13.8176 161.694 13.7024C161.364 13.5872 161.053 13.5296 160.761 13.5296C160.4 13.5296 160.116 13.6026 159.909 13.7485C159.702 13.8943 159.598 14.1132 159.598 14.405C159.598 14.6046 159.675 14.785 159.828 14.9463C159.989 15.0998 160.193 15.238 160.439 15.3609C160.692 15.4837 160.953 15.5951 161.222 15.6949C161.468 15.787 161.709 15.8984 161.947 16.0289C162.193 16.1518 162.412 16.3092 162.604 16.5011C162.796 16.6854 162.949 16.9196 163.065 17.2037C163.18 17.4801 163.237 17.8218 163.237 18.2287C163.237 18.6587 163.126 19.058 162.903 19.4265C162.681 19.7951 162.354 20.0945 161.924 20.3249C161.494 20.5476 160.965 20.6589 160.335 20.6589C160.013 20.6589 159.682 20.6282 159.344 20.5668C159.014 20.4976 158.688 20.3978 158.366 20.2673C158.043 20.1291 157.732 19.9563 157.433 19.749L158.17 18.4476C158.369 18.5934 158.584 18.724 158.815 18.8391C159.053 18.9466 159.291 19.0311 159.529 19.0925C159.767 19.154 159.986 19.1847 160.185 19.1847C160.385 19.1847 160.585 19.1578 160.784 19.104C160.991 19.0426 161.16 18.9428 161.291 18.8046C161.429 18.6664 161.498 18.4744 161.498 18.2287C161.498 18.0598 161.441 17.9062 161.326 17.768C161.218 17.6298 161.068 17.5031 160.876 17.388C160.692 17.2728 160.489 17.173 160.266 17.0885C160.005 16.9887 159.736 16.8735 159.46 16.743C159.183 16.6125 158.922 16.455 158.676 16.2708C158.438 16.0788 158.243 15.8446 158.089 15.5682C157.943 15.2841 157.87 14.9386 157.87 14.5316C157.87 14.0402 157.978 13.6141 158.193 13.2532C158.415 12.8923 158.726 12.6082 159.126 12.4009C159.525 12.1859 159.986 12.0669 160.508 12.0439C161.191 12.0439 161.744 12.1245 162.166 12.2858C162.596 12.447 162.98 12.639 163.318 12.8616L162.685 14.1401ZM111.561 23.9644C111.077 23.7264 110.486 23.6073 109.787 23.6073H107.219V32.0841H108.889V29.4006H110.086C110.639 29.4006 111.104 29.3161 111.48 29.1472C111.864 28.9706 112.167 28.7403 112.39 28.4562C112.62 28.1721 112.785 27.8573 112.885 27.5117C112.993 27.1585 113.046 26.8092 113.046 26.4636C113.046 25.8801 112.92 25.3772 112.666 24.9549C112.413 24.5249 112.044 24.1947 111.561 23.9644ZM110.708 27.6499C110.539 27.7344 110.328 27.7766 110.075 27.7766H108.889V25.2198H110.086C110.378 25.2198 110.609 25.2697 110.777 25.3695C110.954 25.4693 111.085 25.5922 111.169 25.7381C111.253 25.8839 111.307 26.0298 111.33 26.1757C111.361 26.3139 111.376 26.4253 111.376 26.5097C111.376 26.6172 111.353 26.7439 111.307 26.8898C111.269 27.0357 111.2 27.1777 111.1 27.3159C111.008 27.4465 110.877 27.5578 110.708 27.6499ZM117.109 23.6073C117.639 23.6073 118.111 23.6764 118.526 23.8147C118.94 23.9452 119.286 24.1371 119.562 24.3905C119.846 24.6362 120.061 24.9357 120.207 25.2889C120.353 25.6344 120.426 26.026 120.426 26.4636C120.426 26.8092 120.372 27.1547 120.265 27.5002C120.165 27.8457 119.996 28.1605 119.758 28.4446C119.58 28.664 119.357 28.8513 119.087 29.0065L121.059 32.0841H119.113L117.323 29.3891H116.211V32.0841H114.541V23.6073H117.109ZM117.397 27.7766C117.65 27.7766 117.861 27.7344 118.03 27.6499C118.199 27.5655 118.33 27.458 118.422 27.3275C118.522 27.1969 118.591 27.0626 118.629 26.9243C118.675 26.7785 118.698 26.6441 118.698 26.5212C118.698 26.4291 118.683 26.3139 118.652 26.1757C118.629 26.0298 118.576 25.8839 118.491 25.7381C118.407 25.5922 118.276 25.4693 118.1 25.3695C117.931 25.2697 117.7 25.2198 117.408 25.2198H116.211V27.7766H117.397ZM121.96 26.1987C121.737 26.7209 121.626 27.2737 121.626 27.8573C121.626 28.4562 121.737 29.0167 121.96 29.5388C122.182 30.0609 122.489 30.5216 122.881 30.9209C123.28 31.3125 123.741 31.6196 124.263 31.8423C124.785 32.0649 125.346 32.1763 125.945 32.1763C126.536 32.1763 127.093 32.0649 127.615 31.8423C128.137 31.6196 128.597 31.3125 128.997 30.9209C129.404 30.5216 129.719 30.0609 129.941 29.5388C130.172 29.0167 130.287 28.4562 130.287 27.8573C130.287 27.2737 130.172 26.7209 129.941 26.1987C129.719 25.6766 129.404 25.2159 128.997 24.8167C128.597 24.4097 128.137 24.0911 127.615 23.8607C127.093 23.6304 126.536 23.5152 125.945 23.5152C125.346 23.5152 124.785 23.6304 124.263 23.8607C123.741 24.0911 123.28 24.4097 122.881 24.8167C122.489 25.2159 122.182 25.6766 121.96 26.1987ZM123.549 28.9169C123.419 28.5867 123.353 28.2335 123.353 27.8573C123.353 27.4733 123.419 27.1163 123.549 26.7861C123.68 26.456 123.864 26.168 124.102 25.9223C124.34 25.669 124.616 25.4732 124.931 25.3349C125.246 25.1967 125.588 25.1276 125.956 25.1276C126.325 25.1276 126.666 25.1967 126.981 25.3349C127.296 25.4732 127.569 25.669 127.799 25.9223C128.037 26.168 128.221 26.456 128.352 26.7861C128.49 27.1163 128.559 27.4733 128.559 27.8573C128.559 28.2335 128.494 28.5867 128.363 28.9169C128.233 29.2393 128.052 29.5273 127.822 29.7807C127.592 30.0264 127.319 30.2183 127.004 30.3565C126.697 30.4947 126.363 30.5638 126.002 30.5638C125.626 30.5638 125.277 30.4947 124.954 30.3565C124.639 30.2183 124.359 30.0264 124.113 29.7807C123.875 29.5273 123.687 29.2393 123.549 28.9169ZM131.952 23.6073H137.25V25.2198H133.622V27.1432H136.766V28.7556H133.622V32.0841H131.952V23.6073ZM144.639 23.6073H138.858V32.0841H144.801V30.4717H140.528V28.6404H144.167V27.028H140.528V25.2198H144.639V23.6073ZM151.055 25.6574C150.732 25.4808 150.402 25.3349 150.064 25.2198C149.734 25.1046 149.423 25.047 149.131 25.047C148.77 25.047 148.486 25.12 148.279 25.2658C148.072 25.4117 147.968 25.6306 147.968 25.9223C147.968 26.122 148.045 26.3024 148.198 26.4636C148.36 26.6172 148.563 26.7554 148.809 26.8783C149.062 27.0011 149.323 27.1125 149.592 27.2123C149.838 27.3044 150.08 27.4158 150.318 27.5463C150.563 27.6691 150.782 27.8265 150.974 28.0185C151.166 28.2028 151.32 28.437 151.435 28.7211C151.55 28.9975 151.608 29.3392 151.608 29.7461C151.608 30.1761 151.496 30.5754 151.274 30.9439C151.051 31.3125 150.725 31.6119 150.295 31.8423C149.865 32.0649 149.335 32.1763 148.705 32.1763C148.383 32.1763 148.052 32.1456 147.715 32.0841C147.384 32.015 147.058 31.9152 146.736 31.7847C146.413 31.6465 146.102 31.4737 145.803 31.2664L146.54 29.9649C146.74 30.1108 146.954 30.2413 147.185 30.3565C147.423 30.464 147.661 30.5485 147.899 30.6099C148.137 30.6713 148.356 30.702 148.555 30.702C148.755 30.702 148.955 30.6752 149.154 30.6214C149.362 30.56 149.531 30.4602 149.661 30.322C149.799 30.1838 149.868 29.9918 149.868 29.7461C149.868 29.5772 149.811 29.4236 149.696 29.2854C149.588 29.1472 149.438 29.0205 149.246 28.9053C149.062 28.7902 148.859 28.6903 148.636 28.6059C148.375 28.5061 148.106 28.3909 147.83 28.2604C147.553 28.1298 147.292 27.9724 147.047 27.7881C146.809 27.5962 146.613 27.362 146.459 27.0856C146.313 26.8015 146.24 26.456 146.24 26.049C146.24 25.5576 146.348 25.1315 146.563 24.7706C146.786 24.4097 147.097 24.1256 147.496 23.9183C147.895 23.7033 148.356 23.5843 148.878 23.5613C149.561 23.5613 150.114 23.6419 150.536 23.8031C150.966 23.9644 151.35 24.1563 151.688 24.379L151.055 25.6574ZM156.779 25.2198C157.117 25.3349 157.447 25.4808 157.769 25.6574L158.403 24.379C158.065 24.1563 157.681 23.9644 157.251 23.8031C156.829 23.6419 156.276 23.5613 155.593 23.5613C155.071 23.5843 154.61 23.7033 154.211 23.9183C153.811 24.1256 153.5 24.4097 153.278 24.7706C153.063 25.1315 152.955 25.5576 152.955 26.049C152.955 26.456 153.028 26.8015 153.174 27.0856C153.328 27.362 153.523 27.5962 153.761 27.7881C154.007 27.9724 154.268 28.1298 154.545 28.2604C154.821 28.3909 155.09 28.5061 155.351 28.6059C155.573 28.6903 155.777 28.7902 155.961 28.9053C156.153 29.0205 156.303 29.1472 156.41 29.2854C156.526 29.4236 156.583 29.5772 156.583 29.7461C156.583 29.9918 156.514 30.1838 156.376 30.322C156.245 30.4602 156.076 30.56 155.869 30.6214C155.669 30.6752 155.47 30.702 155.27 30.702C155.071 30.702 154.852 30.6713 154.614 30.6099C154.376 30.5485 154.138 30.464 153.9 30.3565C153.669 30.2413 153.454 30.1108 153.255 29.9649L152.517 31.2664C152.817 31.4737 153.128 31.6465 153.45 31.7847C153.773 31.9152 154.099 32.015 154.429 32.0841C154.767 32.1456 155.097 32.1763 155.42 32.1763C156.049 32.1763 156.579 32.0649 157.009 31.8423C157.439 31.6119 157.766 31.3125 157.988 30.9439C158.211 30.5754 158.322 30.1761 158.322 29.7461C158.322 29.3392 158.265 28.9975 158.149 28.7211C158.034 28.437 157.881 28.2028 157.689 28.0185C157.497 27.8265 157.278 27.6691 157.032 27.5463C156.794 27.4158 156.552 27.3044 156.307 27.2123C156.038 27.1125 155.777 27.0011 155.524 26.8783C155.278 26.7554 155.074 26.6172 154.913 26.4636C154.76 26.3024 154.683 26.122 154.683 25.9223C154.683 25.6306 154.786 25.4117 154.994 25.2658C155.201 25.12 155.485 25.047 155.846 25.047C156.138 25.047 156.449 25.1046 156.779 25.2198ZM159.958 23.6073H161.628V32.0841H159.958V23.6073ZM163.631 26.1987C163.409 26.7209 163.297 27.2737 163.297 27.8573C163.297 28.4562 163.409 29.0167 163.631 29.5388C163.854 30.0609 164.161 30.5216 164.553 30.9209C164.952 31.3125 165.413 31.6196 165.935 31.8423C166.457 32.0649 167.018 32.1763 167.616 32.1763C168.208 32.1763 168.764 32.0649 169.286 31.8423C169.809 31.6196 170.269 31.3125 170.669 30.9209C171.075 30.5216 171.39 30.0609 171.613 29.5388C171.843 29.0167 171.958 28.4562 171.958 27.8573C171.958 27.2737 171.843 26.7209 171.613 26.1987C171.39 25.6766 171.075 25.2159 170.669 24.8167C170.269 24.4097 169.809 24.0911 169.286 23.8607C168.764 23.6304 168.208 23.5152 167.616 23.5152C167.018 23.5152 166.457 23.6304 165.935 23.8607C165.413 24.0911 164.952 24.4097 164.553 24.8167C164.161 25.2159 163.854 25.6766 163.631 26.1987ZM165.221 28.9169C165.09 28.5867 165.025 28.2335 165.025 27.8573C165.025 27.4733 165.09 27.1163 165.221 26.7861C165.351 26.456 165.536 26.168 165.774 25.9223C166.012 25.669 166.288 25.4732 166.603 25.3349C166.918 25.1967 167.259 25.1276 167.628 25.1276C167.996 25.1276 168.338 25.1967 168.653 25.3349C168.968 25.4732 169.24 25.669 169.471 25.9223C169.709 26.168 169.893 26.456 170.024 26.7861C170.162 27.1163 170.231 27.4733 170.231 27.8573C170.231 28.2335 170.166 28.5867 170.035 28.9169C169.905 29.2393 169.724 29.5273 169.494 29.7807C169.263 30.0264 168.991 30.2183 168.676 30.3565C168.369 30.4947 168.035 30.5638 167.674 30.5638C167.298 30.5638 166.948 30.4947 166.626 30.3565C166.311 30.2183 166.031 30.0264 165.785 29.7807C165.547 29.5273 165.359 29.2393 165.221 28.9169ZM181.213 32.4297L175.283 27.0733L175.316 32.0841H173.623V23.2733H173.693L179.611 28.7151L179.578 23.6073H181.259V32.4297H181.213ZM186.31 23.2733L182.487 32.0841H184.133L184.824 30.4256H187.638L188.291 32.0841H190.226L186.402 23.2733H186.31ZM187.084 29.0205L186.27 26.9539L185.409 29.0205H187.084ZM191.462 23.6073H193.132V30.4717H197.117V32.0841H191.462V23.6073ZM202.376 25.2198C202.714 25.3349 203.044 25.4808 203.367 25.6574L204 24.379C203.662 24.1563 203.278 23.9644 202.848 23.8031C202.426 23.6419 201.873 23.5613 201.19 23.5613C200.668 23.5843 200.207 23.7033 199.808 23.9183C199.408 24.1256 199.097 24.4097 198.875 24.7706C198.66 25.1315 198.552 25.5576 198.552 26.049C198.552 26.456 198.625 26.8015 198.771 27.0856C198.925 27.362 199.12 27.5962 199.358 27.7881C199.604 27.9724 199.865 28.1298 200.142 28.2604C200.418 28.3909 200.687 28.5061 200.948 28.6059C201.171 28.6903 201.374 28.7902 201.558 28.9053C201.75 29.0205 201.9 29.1472 202.007 29.2854C202.123 29.4236 202.18 29.5772 202.18 29.7461C202.18 29.9918 202.111 30.1838 201.973 30.322C201.842 30.4602 201.673 30.56 201.466 30.6214C201.267 30.6752 201.067 30.702 200.867 30.702C200.668 30.702 200.449 30.6713 200.211 30.6099C199.973 30.5485 199.735 30.464 199.497 30.3565C199.266 30.2413 199.051 30.1108 198.852 29.9649L198.115 31.2664C198.414 31.4737 198.725 31.6465 199.048 31.7847C199.37 31.9152 199.696 32.015 200.026 32.0841C200.364 32.1456 200.695 32.1763 201.017 32.1763C201.647 32.1763 202.176 32.0649 202.606 31.8423C203.036 31.6119 203.363 31.3125 203.585 30.9439C203.808 30.5754 203.919 30.1761 203.919 29.7461C203.919 29.3392 203.862 28.9975 203.747 28.7211C203.631 28.437 203.478 28.2028 203.286 28.0185C203.094 27.8265 202.875 27.6691 202.629 27.5463C202.391 27.4158 202.15 27.3044 201.904 27.2123C201.635 27.1125 201.374 27.0011 201.121 26.8783C200.875 26.7554 200.671 26.6172 200.51 26.4636C200.357 26.3024 200.28 26.122 200.28 25.9223C200.28 25.6306 200.384 25.4117 200.591 25.2658C200.798 25.12 201.082 25.047 201.443 25.047C201.735 25.047 202.046 25.1046 202.376 25.2198ZM106.562 41.0216C106.562 40.5072 106.681 40.0465 106.919 39.6395C107.165 39.2326 107.506 38.9139 107.944 38.6836C108.382 38.4456 108.885 38.3266 109.453 38.3266C110.029 38.3266 110.528 38.4456 110.95 38.6836C111.372 38.9139 111.695 39.2326 111.918 39.6395C112.148 40.0465 112.263 40.5072 112.263 41.0216C112.263 41.5361 112.148 42.0006 111.918 42.4152C111.695 42.8222 111.372 43.1447 110.95 43.3827C110.528 43.6207 110.021 43.7397 109.43 43.7397C108.877 43.7397 108.382 43.6322 107.944 43.4172C107.514 43.2022 107.176 42.8913 106.931 42.4843C106.685 42.0774 106.562 41.5898 106.562 41.0216ZM108.186 41.0331C108.186 41.2942 108.24 41.5322 108.347 41.7472C108.455 41.9545 108.601 42.1196 108.785 42.2425C108.969 42.3653 109.177 42.4267 109.407 42.4267C109.66 42.4267 109.879 42.3653 110.063 42.2425C110.248 42.1196 110.39 41.9545 110.489 41.7472C110.589 41.5322 110.639 41.2942 110.639 41.0331C110.639 40.7644 110.589 40.5264 110.489 40.3191C110.39 40.1117 110.248 39.9467 110.063 39.8238C109.879 39.701 109.66 39.6395 109.407 39.6395C109.177 39.6395 108.969 39.701 108.785 39.8238C108.601 39.9467 108.455 40.1117 108.347 40.3191C108.24 40.5264 108.186 40.7644 108.186 41.0331ZM114.017 39.9735V43.6015H115.63V39.9735H117.15V38.5454H115.63V36.8408C115.63 36.503 115.703 36.2573 115.848 36.1037C115.994 35.9501 116.182 35.8733 116.413 35.8733C116.505 35.8733 116.601 35.8925 116.701 35.9309C116.808 35.9616 116.9 36.0269 116.977 36.1267L117.657 34.9635C117.457 34.8176 117.223 34.7139 116.954 34.6525C116.693 34.5834 116.455 34.5489 116.24 34.5489C115.518 34.5489 114.965 34.76 114.581 35.1823C114.205 35.5969 114.017 36.1344 114.017 36.7947V38.5454H113.165V39.9735H114.017ZM121.593 43.6015L125.417 34.7907H125.509L129.333 43.6015H127.398L126.744 41.943H123.93L123.24 43.6015H121.593ZM125.376 38.4713L126.19 40.5379H124.516L125.376 38.4713ZM130.568 34.7792V43.6015H132.181V39.8073L134.841 43.4863H134.864L137.628 39.5565V43.6015H139.298V34.7792H139.275L134.88 40.877L130.58 34.7792H130.568ZM141.49 35.1247H147.271V36.7372H143.16V38.5454H146.799V40.1578H143.16V41.9891H147.432V43.6015H141.49V35.1247ZM153.145 35.332C152.731 35.1938 152.258 35.1247 151.729 35.1247H149.16V43.6015H150.83V40.9064H151.942L153.733 43.6015H155.679L153.707 40.5239C153.976 40.3686 154.2 40.1813 154.378 39.962C154.616 39.6779 154.785 39.3631 154.884 39.0176C154.992 38.6721 155.046 38.3266 155.046 37.981C155.046 37.5434 154.973 37.1518 154.827 36.8063C154.681 36.4531 154.466 36.1536 154.182 35.9079C153.905 35.6545 153.56 35.4626 153.145 35.332ZM152.65 39.1673C152.481 39.2518 152.27 39.294 152.017 39.294H150.83V36.7372H152.028C152.32 36.7372 152.55 36.7871 152.719 36.8869C152.896 36.9867 153.026 37.1095 153.111 37.2554C153.195 37.4013 153.249 37.5472 153.272 37.6931C153.303 37.8313 153.318 37.9465 153.318 38.0386C153.318 38.1615 153.295 38.2958 153.249 38.4417C153.211 38.5799 153.141 38.7143 153.042 38.8448C152.949 38.9754 152.819 39.0829 152.65 39.1673ZM157.056 35.1247H158.726V43.6015H157.056V35.1247ZM166.753 43.2099C167.007 43.0794 167.179 42.9757 167.271 42.899L166.58 41.4017C166.411 41.5629 166.166 41.7165 165.843 41.8624C165.521 42.0083 165.133 42.0812 164.68 42.0812C164.288 42.0812 163.935 42.016 163.62 41.8854C163.313 41.7549 163.048 41.5706 162.826 41.3326C162.603 41.0869 162.43 40.7951 162.307 40.4573C162.192 40.1194 162.135 39.747 162.135 39.3401C162.135 38.9562 162.2 38.603 162.33 38.2805C162.461 37.9503 162.638 37.6624 162.86 37.4167C163.091 37.171 163.352 36.9829 163.643 36.8523C163.943 36.7141 164.254 36.645 164.576 36.645C164.991 36.645 165.356 36.7256 165.671 36.8869C165.993 37.0404 166.25 37.1902 166.442 37.3361L167.099 35.7582C166.822 35.5816 166.465 35.4165 166.028 35.2629C165.59 35.1094 165.087 35.0326 164.519 35.0326C163.905 35.0326 163.344 35.1401 162.837 35.3551C162.33 35.5701 161.893 35.8733 161.524 36.2649C161.163 36.6565 160.883 37.1211 160.683 37.6585C160.492 38.196 160.396 38.7872 160.396 39.4322C160.396 40.0081 160.492 40.5494 160.683 41.0562C160.875 41.5629 161.152 42.0121 161.513 42.4037C161.881 42.7953 162.327 43.1063 162.849 43.3366C163.379 43.5593 163.977 43.6783 164.645 43.6937C165.083 43.7013 165.482 43.6553 165.843 43.5554C166.204 43.4556 166.507 43.3405 166.753 43.2099ZM167.989 43.6015L171.812 34.7907H171.904L175.728 43.6015H173.793L173.14 41.943H170.326L169.636 43.6015H167.989ZM171.772 38.4713L172.586 40.5379H170.911L171.772 38.4713ZM91.3163 4.11335H89.6709V43.6015H91.3163V4.11335Z" fill="#FED7AA"/>
</svg>
