<svg xmlns="http://www.w3.org/2000/svg" version="1.1" xmlns:xlink="http://www.w3.org/1999/xlink" xmlns:svgjs="http://svgjs.com/svgjs" width="1000" height="1000"><rect width="1000" height="1000" rx="200" ry="200" fill="#555555"></rect><g transform="matrix(6.451612903225806,0,0,6.451612903225806,100,100)"><svg xmlns="http://www.w3.org/2000/svg" version="1.1" xmlns:xlink="http://www.w3.org/1999/xlink" xmlns:svgjs="http://svgjs.com/svgjs" width="124" height="124"><svg width="124" height="124" viewBox="0 0 124 124" fill="none" xmlns="http://www.w3.org/2000/svg">
<path fill-rule="evenodd" clip-rule="evenodd" d="M26.8269 33.3846H24.4423V62H24.4676C24.4508 62.2959 24.4423 62.594 24.4423 62.8942C24.4423 71.29 31.1149 78.0961 39.3461 78.0961C42.4385 78.0961 45.311 77.1354 47.6923 75.4907V91.2115H50.0769V73.4439C50.3653 73.1388 50.6414 72.8213 50.9042 72.4924C53.5278 75.9122 57.5238 78.0961 62 78.0961C66.3454 78.0961 70.2383 76.0379 72.8623 72.789C75.5884 76.3803 79.8564 78.6923 84.6538 78.6923C89.9027 78.6923 94.5178 75.9247 97.1731 71.7421V77.5H99.5577V63.7885H99.5549C99.5567 63.6893 99.5577 63.59 99.5577 63.4904C99.5577 55.0946 92.885 48.2885 84.6538 48.2885C80.1218 48.2885 76.0622 50.3518 73.3287 53.6078C70.7121 50.0095 66.6107 47.6923 62 47.6923C57.5238 47.6923 53.5278 49.8762 50.9042 53.296C48.1713 49.8762 44.0088 47.6923 39.3461 47.6923C34.0973 47.6923 29.4822 50.4599 26.8269 54.6424V33.3846ZM84.6538 76.3077C80.3434 76.3077 76.5418 74.0774 74.2898 70.6826C75.5713 68.4047 76.3077 65.7408 76.3077 62.8942C76.3077 60.3255 75.7081 57.9056 74.6494 55.7838C76.9342 52.6799 80.5651 50.6731 84.6538 50.6731C91.568 50.6731 97.1731 56.4116 97.1731 63.4904C97.1731 70.5692 91.568 76.3077 84.6538 76.3077ZM74.0184 62.8942C74.0184 61.2658 73.7337 59.7083 73.2144 58.2752C72.5204 59.8684 72.1346 61.6333 72.1346 63.4904C72.1346 65.1234 72.4329 66.6851 72.9768 68.1215C73.6462 66.5251 74.0184 64.756 74.0184 62.8942ZM69.75 63.4904C69.75 60.6107 70.535 57.9181 71.8986 55.6229C69.7306 52.2725 66.1057 50.0769 61.9999 50.0769C58.0085 50.0769 54.4715 52.152 52.2857 55.3458C53.5355 57.5699 54.25 60.1469 54.25 62.8942C54.25 65.6415 53.5355 68.2185 52.2857 70.4426C54.4715 73.6364 58.0085 75.7115 61.9999 75.7115C65.8818 75.7115 69.3338 73.7488 71.5311 70.7032C70.3949 68.5571 69.75 66.1006 69.75 63.4904ZM39.3461 75.7115C42.5525 75.7115 45.4774 74.4774 47.6923 72.4478V62.5961H47.695C47.742 59.9978 48.4026 57.559 49.5293 55.4367C47.2579 52.1914 43.5432 50.0769 39.3461 50.0769C32.4319 50.0769 26.8268 55.8154 26.8268 62.8942C26.8268 69.973 32.4319 75.7115 39.3461 75.7115ZM51.8653 62.8942C51.8653 61.1458 51.5234 59.4791 50.9042 57.9604C50.3436 59.3925 50.0198 60.9563 49.9847 62.5961H50.0769V64.5169C50.2142 65.676 50.4966 66.7868 50.9042 67.828C51.5234 66.3094 51.8653 64.6427 51.8653 62.8942Z" fill="#FED7AA"></path>
<path fill-rule="evenodd" clip-rule="evenodd" d="M62 124C96.2417 124 124 96.2417 124 62C124 27.7583 96.2417 0 62 0C27.7583 0 0 27.7583 0 62C0 96.2417 27.7583 124 62 124ZM61.9999 121.569C94.8988 121.569 121.569 94.8988 121.569 62C121.569 29.1011 94.8988 2.43136 61.9999 2.43136C29.1011 2.43136 2.43131 29.1011 2.43131 62C2.43131 94.8988 29.1011 121.569 61.9999 121.569Z" fill="#FED7AA"></path>
</svg></svg></g></svg>